<svg id="Layer_1" data-name="Layer 1" xmlns="http://www.w3.org/2000/svg" viewBox="0 0 207.47 221"><title>graph</title><circle cx="66.74" cy="23.74" r="23.73" style="fill:#111"/><circle cx="23.73" cy="152.09" r="23.73" style="fill:#111"/><circle cx="183.73" cy="100.09" r="23.73" style="fill:#111"/><circle cx="173.8" cy="197.26" r="23.73" style="fill:#111"/><line x1="34.19" y1="132.9" x2="60" y2="46" style="stroke:#000;stroke-miterlimit:10;stroke-width:2px"/><line x1="43.33" y1="162.05" x2="153.44" y2="197.26" style="stroke:#000;stroke-miterlimit:10;stroke-width:2px"/><line x1="45" y1="143" x2="162" y2="110" style="stroke:#000;stroke-miterlimit:10;stroke-width:2px"/><line x1="176" y1="176" x2="181" y2="124" style="fill:none;stroke:#000;stroke-miterlimit:10;stroke-width:2px"/><path d="M256.62,114.1h-.07l-3.83,2.07-.57-2.27,4.81-2.58h2.54v22h-2.88Z" transform="translate(-191 -98)" style="fill:#fff"/><path d="M209.15,260.34v-1.83l2.34-2.27c5.62-5.35,8.16-8.19,8.19-11.51,0-2.24-1.08-4.31-4.37-4.31a7.48,7.48,0,0,0-4.67,1.87l-.95-2.1a9.63,9.63,0,0,1,6.23-2.24c4.75,0,6.74,3.25,6.74,6.4,0,4.07-2.94,7.35-7.58,11.83l-1.77,1.62v.07h9.9v2.47Z" transform="translate(-191 -98)" style="fill:#fff"/><path d="M368.86,205.92a10,10,0,0,0,4.88,1.39c3.83,0,5-2.44,5-4.27,0-3.08-2.81-4.4-5.69-4.4h-1.66V196.4H373c2.16,0,4.91-1.12,4.91-3.72,0-1.77-1.12-3.32-3.86-3.32a8.07,8.07,0,0,0-4.41,1.45l-.78-2.17a10.53,10.53,0,0,1,5.76-1.69c4.34,0,6.3,2.58,6.3,5.25,0,2.27-1.35,4.2-4.06,5.18v.07a5.74,5.74,0,0,1,4.91,5.66c0,3.52-2.74,6.6-8,6.6a11.08,11.08,0,0,1-5.72-1.49Z" transform="translate(-191 -98)" style="fill:#fff"/><path d="M367.36,307.34v-6H357.13v-2L367,285.32h3.21V299h3.09v2.34h-3.09v6Zm0-8.33v-7.35c0-1.15,0-2.31.1-3.46h-.1c-.68,1.29-1.22,2.24-1.83,3.25l-5.38,7.49V299Z" transform="translate(-191 -98)" style="fill:#fff"/></svg>